<svg xmlns="http://www.w3.org/2000/svg" viewBox="0 0 27.48 27.54">
  <defs>
    <style>
      .a {
        fill: #fff;
        fill-rule: evenodd;
      }
    </style>
  </defs>
  <path class="a" d="M21.38,21.38a10.56,10.56,0,0,0,3.15-7.64A10.76,10.76,0,0,0,21.38,6.1,10.86,10.86,0,0,0,6.1,6.1,10.76,10.76,0,0,0,3,13.74,10.55,10.55,0,0,0,6.1,21.38a10.7,10.7,0,0,0,15.28,0Zm-7-3.26a.66.66,0,0,1-1.23,0l-3.7-6.78H18Zm13.12-4.38a13.76,13.76,0,0,1-13.74,13.8A13.53,13.53,0,0,1,4,23.48,13.75,13.75,0,0,1,4,4.07,13.5,13.5,0,0,1,13.74,0,13.78,13.78,0,0,1,27.48,13.74Z"/>
</svg>
