<svg xmlns="http://www.w3.org/2000/svg" viewBox="0 0 122.88 91.26">
  <defs>
    <style>
      .a {
        fill: #fff;
        fill-rule: evenodd;
      }
    </style>
  </defs>
  <path class="a" d="M8.32,0H114.56a8.34,8.34,0,0,1,8.32,8.32V82.94a8.35,8.35,0,0,1-8.32,8.32H8.32A8.35,8.35,0,0,1,0,82.94V8.32A8.34,8.34,0,0,1,8.32,0ZM54.46,72.22,32,58.61V50L54.46,36.37V46.63L40.81,54.32,54.46,62v10.2Zm14,0L90.88,58.61V50L68.42,36.37V46.63l13.65,7.69L68.42,62v10.2ZM118,23.29H5.29V83.75a2.29,2.29,0,0,0,2.3,2.3h108a2.3,2.3,0,0,0,1.63-.67,2.26,2.26,0,0,0,.67-1.63V23.29ZM106.64,9.35a4.11,4.11,0,1,1-4.11,4.11,4.11,4.11,0,0,1,4.11-4.11Zm-27.84,0a4.11,4.11,0,1,1-4.11,4.11A4.11,4.11,0,0,1,78.8,9.35Zm13.92,0a4.11,4.11,0,1,1-4.11,4.11,4.11,4.11,0,0,1,4.11-4.11Z"/>
</svg>
