<svg xmlns="http://www.w3.org/2000/svg" xmlns:xlink="http://www.w3.org/1999/xlink" viewBox="0 0 154.53 103.45">
  <defs>
    <style>
      .a {
        fill: none;
      }

      .b {
        clip-path: url(#a);
      }

      .c {
        fill: #00237c;
      }

      .d {
        fill: #fff;
      }

      .e {
        fill: #cf142b;
      }
    </style>
    <clipPath id="a" transform="translate(26.53 2.18)">
      <circle class="a" cx="50.36" cy="50.36" r="50.36" transform="translate(-17.21 27.84) rotate(-26.56)"/>
    </clipPath>
  </defs>
  <g class="b">
    <g>
      <g>
        <rect class="c" width="64.15" height="34.31"/>
        <polygon class="d" points="17.61 0 0 0 0 10.79 85.9 67.51 106.81 58.9 17.61 0"/>
        <polygon class="e" points="0 0.9 0 8.32 87.04 65.79 90.45 60.62 0 0.9"/>
      </g>
      <g>
        <rect class="c" x="90.38" width="64.15" height="34.31"/>
        <polygon class="d" points="136.93 0 154.53 0 154.53 10.79 68.63 67.51 47.72 58.9 136.93 0"/>
        <polygon class="e" points="154.53 0.9 154.53 8.32 67.49 65.79 64.08 60.62 154.53 0.9"/>
      </g>
      <g>
        <rect class="c" x="90.38" y="69.14" width="64.15" height="34.31"/>
        <polygon class="d" points="136.93 103.45 154.53 103.45 154.53 92.66 68.63 35.94 47.72 44.55 136.93 103.45"/>
        <polygon class="e" points="154.53 102.55 154.53 95.14 67.49 37.66 64.08 42.83 154.53 102.55"/>
      </g>
      <g>
        <rect class="c" y="69.14" width="64.15" height="34.31"/>
        <polygon class="d" points="17.61 103.45 0 103.45 0 92.66 85.9 35.94 106.81 44.55 17.61 103.45"/>
        <polygon class="e" points="0 102.55 0 95.14 87.04 37.66 90.45 42.83 0 102.55"/>
      </g>
      <polygon class="d" points="154.53 34.31 90.51 34.31 90.51 0 63.76 0 63.76 34.31 0 34.31 0 68.37 63.76 68.37 63.76 103.45 90.51 103.45 90.51 68.37 154.53 68.37 154.53 34.31"/>
      <polygon class="e" points="154.53 41.28 84.83 41.28 84.83 0 69.44 0 69.44 41.28 0 41.28 0 61.4 69.44 61.4 69.44 103.45 84.83 103.45 84.83 61.4 154.53 61.4 154.53 41.28"/>
    </g>
  </g>
</svg>
