<?xml version="1.0" encoding="utf-8"?>
<!-- Generator: Adobe Illustrator 24.2.1, SVG Export Plug-In . SVG Version: 6.00 Build 0)  -->
<svg version="1.1" id="Layer_1" xmlns="http://www.w3.org/2000/svg" xmlns:xlink="http://www.w3.org/1999/xlink" x="0px" y="0px"
	 viewBox="0 0 359.6 359.7" style="enable-background:new 0 0 359.6 359.7;" xml:space="preserve">
<style type="text/css">
	.st0{clip-path:url(#SVGID_2_);}
	.st1{fill:#273375;}
	.st2{fill:#FFFFFF;}
	.st3{fill:#D0202D;}
</style>
<g>
	<defs>
		<circle id="SVGID_1_" cx="179.7" cy="179.5" r="179.9"/>
	</defs>
	<clipPath id="SVGID_2_">
		<use xlink:href="#SVGID_1_"  style="overflow:visible;"/>
	</clipPath>
	<g class="st0">
		<g>
			<g>
				<rect x="-95" y="-8.2" class="st1" width="229.2" height="122.6"/>
				<polygon class="st2" points="-32,-8.2 -95,-8.2 -95,30.3 211.9,233 286.6,202.2 				"/>
				<polygon class="st3" points="-95,-5 -95,21.5 216,226.8 228.2,208.3 				"/>
			</g>
			<g>
				<rect x="227.9" y="-8.2" class="st1" width="229.2" height="122.6"/>
				<polygon class="st2" points="394.2,-8.2 457.1,-8.2 457.1,30.3 150.2,233 75.5,202.2 				"/>
				<polygon class="st3" points="457.1,-5 457.1,21.5 146.1,226.8 134,208.3 				"/>
			</g>
			<g>
				<rect x="227.9" y="238.8" class="st1" width="229.2" height="122.6"/>
				<polygon class="st2" points="394.2,361.3 457.1,361.3 457.1,322.8 150.2,120.2 75.5,150.9 				"/>
				<polygon class="st3" points="457.1,358.1 457.1,331.7 146.1,126.3 134,144.8 				"/>
			</g>
			<g>
				<rect x="-95" y="238.8" class="st1" width="229.2" height="122.6"/>
				<polygon class="st2" points="-32,361.3 -95,361.3 -95,322.8 211.9,120.2 286.6,150.9 				"/>
				<polygon class="st3" points="-95,358.1 -95,331.7 216,126.3 228.2,144.8 				"/>
			</g>
			<polygon class="st2" points="457.1,114.4 228.4,114.4 228.4,-8.2 132.8,-8.2 132.8,114.4 -95,114.4 -95,236 132.8,236 
				132.8,361.3 228.4,361.3 228.4,236 457.1,236 			"/>
			<polygon class="st3" points="457.1,139.3 208.1,139.3 208.1,-8.2 153.1,-8.2 153.1,139.3 -95,139.3 -95,211.1 153.1,211.1 
				153.1,361.3 208.1,361.3 208.1,211.1 457.1,211.1 			"/>
		</g>
	</g>
</g>
</svg>
