<svg xmlns="http://www.w3.org/2000/svg" viewBox="0 0 209.64 209.6">
  <defs>
    <style>
      .a {
        fill: #fff;
        opacity: 0.86;
      }
    </style>
  </defs>
  <path class="a" d="M109.51,209.6l-.3-.25h-.48l-.25-7.09h.19c.1,0,.17,0,.28,0h.22v.18Zm-3.65-.18-.54-.18,0-6.94.75.18,0,6.94Zm-3.19,0h-.77l.36-7.08h.56v.18Zm-3.41-.11-.74,0,.41-7.13.18,0h.23l.32,0Zm12.85-.07-.47-7.12.51,0,0,.18h.19l.51,6.91h-.18a1.84,1.84,0,0,1-.41,0Zm-16.26-.14-.18,0c-.12,0-.23,0-.34,0h-.19v-.18l.63-6.91H96c.07,0,.1,0,.18,0h.18l.15,0Zm19.67-.15-.73-7.09.36,0h.2l.17,0,.74,7.08h-.18c-.12,0-.26,0-.37,0Zm-23.24-.26h-.1a.61.61,0,0,1-.27,0l-.18,0,.88-7,.7.12-.81,6.86h-.18Zm26.62-.15-1-7.05.18,0c.11,0,.22,0,.37,0l.15,0,1,7-.19,0a.3.3,0,0,0-.18,0h-.18Zm-29.81-.25-.73-.16,1.09-7,.19,0a1.23,1.23,0,0,0,.33,0h.21Zm33.19-.26-1.17-7,.3,0a.08.08,0,0,0,.06,0v-.26l.37.41,1.18,6.83-.19,0c-.14,0-.25,0-.37,0Zm-36.54-.33-.17,0a1.27,1.27,0,0,1-.38-.07l-.17,0,1.31-7,.7.16Zm39.89-.29-1.41-7,.7-.15,1.44,7-.18,0a1.76,1.76,0,0,1-.37.08ZM82.41,207l-.19,0a1.87,1.87,0,0,0-.22-.07l-.33-.08,1.54-6.9.29,0a2.68,2.68,0,0,1,.27.07l.18,0Zm46.56-.33-1.66-6.93.71-.15,1.69,6.9-.19,0a1.48,1.48,0,0,1-.37.07Zm-49.91-.44-.18-.06a.84.84,0,0,0-.33-.08l-.2,0,1.78-6.9.69.18Zm54.05-.11-.41-.4a.61.61,0,0,0-.25.07l-.18,0L130.4,199l.18,0a.84.84,0,0,1,.26-.07l.25,0Zm-57.32-.8-.18,0c-.11,0-.26-.06-.36-.11l-.19-.07,2-6.8.7.19Zm-3.56-.08,0-1-.36-.11,2.23-6.75.3.07s.11,0,.18.07h.23Zm63.31-.37-2.08-6.78.39-.11V196.9l2.38,7.67Zm3.23-1-2.31-6.72.18-.08a1.42,1.42,0,0,0,.33-.11l.07,0,.19.14,2.27,6.62h-.22a.84.84,0,0,1-.19.07Zm-69.47-.63-.19-.07-.33-.11-.19-.07,2.47-6.69.18.08s.07,0,.11,0l.33-1.26v1.36l0,0ZM142,202.7l-2.5-6.64.14-.09a1.47,1.47,0,0,0,.22-.1l.3-.11,2.5,6.68-.11,0a1,1,0,0,0-.37.15ZM66.1,202l-.19-.07a1.33,1.33,0,0,0-.32-.15l-.19-.07,2.69-6.58.18,0c.11,0,.22.12.32.15l.16.08Zm79-.59-2.72-6.53.15-.07a.72.72,0,0,0,.3-.16l.18,0,.11.15,2.69,6.35-.16.07a1,1,0,0,1-.37.15Zm-82.18-.72-.14-.12a.42.42,0,0,1-.22-.08l-.3-.14,2.86-6.5.67.29Zm85.31-.63-2.95-6.47.3-.1.07-.08v-.69l3.27,7-.18.08-.25.11Zm-88.4-.81-.18-.07c-.09-.08-.22-.11-.33-.19l-.18-.07,3.12-6.39.14.07.22.12.24.25-.05,0Zm91.48-.62-3.15-6.39.21-.12.26-.11.18,0,.08.12,3.15,6.27h-.25s-.12,0-.15.08a.26.26,0,0,1-.15.07Zm-94.56-.89-.15-.11c-.1-.07-.21-.11-.33-.18l-.17-.07,3.33-6.32.15.11c.11,0,.18.11.29.14l.15.08,0,.19Zm97.61-.7L151,190.76l.16-.06.22-.12V190l.21.45.15-.08v.3l3.28,6.05-.16.08c-.11.07-.21.11-.33.19ZM53.8,196.09l-.18-.07c-.12-.08-.23-.12-.34-.19l-.14-.11,3.48-6.17.19.08c.1.06.22.15.29.18l.16.11Zm103.52-.69-3.56-6.14.14-.11a1.79,1.79,0,0,0,.33-.18l.15-.07L158,195Zm-106.5-1-.14-.11a1.55,1.55,0,0,0-.33-.18L50.2,194l3.71-6.05.15.08.28.18.19.1Zm109.44-.73-3.8-6.06.67-.3,0,.08,3.71,5.87-.3.15c0,.08-.11.11-.18.15ZM48,192.57l-.18-.11-.29-.19-.15-.11,3.9-5.91.14.07a.64.64,0,0,0,.16.11s.07,0,.11,0h.29l-.11.15.44.22h-.59Zm115.13-.78-4-5.87.3-.22s0,0,.08,0v-.51l4.21,6.24-.14.1a.82.82,0,0,0-.22.16Zm-118-1.13-.14-.12a.89.89,0,0,0-.3-.18l-.14-.11,4.07-5.83.16.1c.1.08.21.15.28.22l.15.11Zm120.78-.81-4.15-5.77.18-.11a.83.83,0,0,0,.15-.11l.26-.18,4.11,5.8-.07.07a.49.49,0,0,0-.15.12.87.87,0,0,0-.18.11Zm-124.19-.52.4-.88a.33.33,0,0,1-.18-.15l-.15-.1,4.3-5.66.18.15c.08.07.15.11.22.18l.07.23,0,0Zm127-1.51-4.34-5.61.15-.11a.39.39,0,0,1,.15-.11s.08-.07.11-.11l.14-.12,4.37,5.63-.14.1c-.11.08-.19.15-.3.22Zm-129-1.24-.58-.48,4.44-5.5.3.21a.33.33,0,0,0,.14.11l.15.11Zm131.62-.84-4.52-5.51.15-.11c.11-.08.18-.15.29-.22l.14-.11,4.53,5.47-.15.11c-.08.07-.18.14-.29.25ZM37,184.42l-.55-.48,4.63-5.41.22.23a.62.62,0,0,1,.19.14l.14.11Zm136.87-.89-4.71-5.36.16-.11s.1-.07.14-.11a.39.39,0,0,1,.14-.1l.12-.15,4.7,5.31-.11.16a2,2,0,0,0-.29.22ZM34.49,182.17l-.22-.18a2.34,2.34,0,0,1-.22-.23l-.12-.1,4.82-5.25.18.21c.07,0,.11.12.18.16l.14.14Zm141.92-.92L171.57,176l.1-.11.22-.22.19-.14,5.06,5.32h-.36l-.12.11-.1.1ZM32,179.83l-.16-.11-.21-.23-.19-.19,5-5.06.52.51Zm146.88-1-5-5,.11-.11a2,2,0,0,0,.25-.26l.22-.07,0,.07,4.84,4.88v.45l-.18-.18a.27.27,0,0,0-.11.14Zm-149.3-1.44-.23-.25-.15-.18-.11-.11L34.19,172l.22.23a.57.57,0,0,1,.11.11h.36Zm151.66-1-5.18-4.84.18-.19.18-.19.11-.14,5.44,5-.44,0c0,.07-.11.11-.16.18Zm-154-1.47-.11-.15.11-.11-.14.07a1.12,1.12,0,0,1-.23-.25l-.11-.15,5.29-4.7.48.51Zm156.28-1-5.36-4.71.15-.15a1.32,1.32,0,0,0,.21-.25l.12-.14,5.36,4.69-.11.15-.26.25ZM25,172.37l-.11-.15a.51.51,0,0,1-.12-.15s-.1-.07-.14-.14l-.11-.15L30,167.23l.23.22a.55.55,0,0,0,.14.18l.12.15Zm160.72-1.07-5.51-4.51.49-.56,5.43,4.52v.44l-.19-.14ZM22.85,169.76l-.12-.18-.22-.26-.14-.15L28,164.76l.11.15c.06.08.14.19.21.3l.11.11Zm165-1.09-5.63-4.34.16-.22a.8.8,0,0,0,.14-.22l.11-.15,5.69,4.33-.14.18a2,2,0,0,0-.22.26ZM20.78,167l-.14-.21a1,1,0,0,1-.18-.26l-.11-.15,5.73-4.19.1.15c0,.07.12.15.15.22h.48Zm169.15-1.1-5.81-4.19.44-.59,5.76,4.16-.1.14a.85.85,0,0,1-.19.3Zm-171-1.72-.22-.11c-.08-.12-.15-.18-.22-.3l-.12-.15.15-.1,5.73-3.93.18.25a1.06,1.06,0,0,0,.11.19l.11.15Zm173-1.1-5.92-4,.41-.59,5.91,3.93Zm-175-1.69-.41-.63,6-3.82.1.15a1.4,1.4,0,0,1,.19.33l.1.15Zm176.81-1.18-6-3.74.11-.15a.18.18,0,0,1,.07-.15l-.52-.26h.81l.08.05,5.87,3.63-.19.29a.72.72,0,0,1-.1.18ZM15.1,158.56l-.38-.63,6.1-3.63.37.59Zm180.4-1.21-6.16-3.56.07-.19a1.28,1.28,0,0,0,.12-.15s0-.1.06-.14l.12-.15,6.12,3.53-.07.14c-.08.12-.11.23-.18.33ZM13.3,155.7l-.11-.81,6.09-3.34.08.15.18.28v.22l-.07,0Zm183.86-1.33L190.92,151l.07-.14.11-.22.15-.26,6.23,3.35-.06.14a1.5,1.5,0,0,0-.11.22ZM11.79,152.61l-.33-.66,6.35-3.23.33.66Zm186.94-1.29-6.39-3.15.12-.18a.93.93,0,0,1,.07-.19l-.22-.22h.47l.08,0L199,150.7l0,.11c0,.08-.07.11-.07.18l-.11.19ZM10.28,149.56l-.07-.14c0-.11-.11-.27-.15-.37l-.1-.15,6.45-3,.08.15a.89.89,0,0,1,.07.18l.15.3Zm189.93-1.32-6.47-2.94.11-.25c0-.07.07-.18.11-.26l.08-.15,6.46,2.94ZM8.89,146.48l-.3-.7L15.13,143l.08.18c0,.11.06.23.1.34l.08.14Zm192.67-1.36L195,142.4l.14-.36-.54-.26h.88l6.39,2.64-.08.18c0,.12-.11.22-.14.34Zm-194-1.76-.26-.69,6.61-2.61.07.18a1.61,1.61,0,0,0,.15.33v.18l-.11,0ZM202.85,142l-6.68-2.53.07-.18a.26.26,0,0,0,.07-.15s0,0,0-.08l-.52-.51,7.2,2.86ZM6.39,140.17,6.33,140a.42.42,0,0,1-.08-.22l-.12-.29,6.68-2.4.34.63-.26.11ZM204,138.73l-6.76-2.31.07-.15a1,1,0,0,1,.08-.22l0-.33.21.08,6.57,2.24-.07.18c0,.11-.08.22-.11.33ZM5.43,136.89l-.22-.14a1,1,0,0,0-.07-.18c0-.08,0-.11,0-.19L5,136.2l6.8-2.13.22.69Zm199.63-1.43-6.8-2.06,0-.18a1.22,1.22,0,0,0,.1-.33l.08-.18,6.79,2ZM4.26,133.67l0-.19a.31.31,0,0,1,0-.18s0-.11-.07-.19l0-.15L10.91,131l.07.18c0,.08,0,.15,0,.22l.12.29ZM206,132.19l-6.87-1.83.18-.7,6.84,2,0,.14a1.42,1.42,0,0,1-.07.22ZM3.38,130.36l0-.15a1.76,1.76,0,0,1-.07-.41l0-.14L10.1,128l0,.14a1,1,0,0,1,.08.22h.29l-.25.26,0,0Zm203.47-1.47-6.9-1.62,0-.18a.58.58,0,0,1,0-.22v-.29h.08l.28-1.47v1.54l6.58,1.69,0,.15c0,.07,0,.14,0,.22ZM2.62,127.06l-.05-.19c0-.11,0-.22-.08-.37l0-.18,7-1.47,0,.18a1,1,0,0,1,.07.34l-.14.22Zm205-1.47-7-1.4,0-.18a1.27,1.27,0,0,1,.08-.37l0-.18,7,1.36,0,.18a1.34,1.34,0,0,0-.07.4ZM2,123.71,1.8,123l7-1.25,0,.18c0,.11,0,.26,0,.37l0,.18Zm206.26-1.51-7-1.17.05-.29c0-.07,0-.15,0-.22v-.22l.22.07,6.83,1.1,0,.19c0,.07,0,.18,0,.25ZM1.36,120.37v-.19c0-.07,0-.14,0-.21l0-.33,7-1,.06.18c0,.12,0,.22,0,.37l0,.14Zm207.37-1.51-7.06-1,.08-.72,7.05.91v.18c0,.12,0,.23-.07.34ZM.93,117l-.09-.78,7.06-.77,0,.18c0,.15,0,.26,0,.38v.14l-.15,0Zm208.16-1.51-7.05-.74v-.18c0-.07,0-.15,0-.25l0-.27h.19l6.89.67ZM.59,113.58v-.15a.43.43,0,0,1,0-.23l0-.36,7.08-.55,0,.19v.36l0,.18Zm208.79-1.51-7.07-.48,0-.73,7.13.48,0,.18v.37ZM.37,110.2l0-.18H.52l-.19,0v-.37l.19-.18,6.9-.29,0,.69Zm209.2-1.54-7.13-.26,0-.18V108l0-.34,7.08.22v.37c0,.07,0,.15,0,.18ZM.22,106.78v-.54l.19-.19,6.93-.11-.18.73Zm209.42-1.5-7.08-.22.18-.92h6.9ZM7.31,103.48l-7.09-.29v-.56l7.12.3v.36Zm195.21-1.76,0-.34v-.21l0-.19h.23l6.9-.26v.18a.54.54,0,0,1,0,.19v.37ZM7.23,100.28.41,100,0,99.63H.33v-.19l.22-.18,6.91.51a.93.93,0,0,1,0,.33Zm195.1-1.76,0-.73,7.07-.48,0,.22v.37l0,.18ZM7.6,97.12.52,96.57l0-.18V96.1l0-.25,7.09.58,0,.18v.19Zm194.52-1.75,0-.18a1.08,1.08,0,0,0,0-.35v-.21l6.87-.66,0,.37v-.19l.19,0,.07.54ZM7.9,94,.84,92.83h0a.25.25,0,0,1,.05-.18v-.22L8,93.27l0,.18a.4.4,0,0,1,0,.19v.14Zm193.85-1.76-.08-.74,7-.92,0,.18c0,.08,0,.15,0,.23l0,.33ZM8.29,90.81l-7-1v-.26c0-.1,0-.22.07-.33l0-.14,7,1,0,.19v.18s0,.11,0,.15Zm193-1.76,0-.19c0-.07,0-.15,0-.21l-.23-.26,7.2-1.22v.22a.37.37,0,0,1,0,.23l.07.29ZM8.82,87.69l-7-1.24L2,85.7l7,1.29,0,.18a.21.21,0,0,1,0,.15v.19Zm191.94-1.76,0-.18a2.26,2.26,0,0,0-.08-.3l0-.19.2-.07,6.78-1.35,0,.18a1.1,1.1,0,0,0,.07.36l0,.2ZM9.41,84.58,2.46,83.1l0-.26c0-.11,0-.22.08-.29l.05-.18,6.93,1.5,0,.18a.77.77,0,0,0,0,.26ZM200.1,82.84l0-.18c0-.11-.07-.22-.11-.33l0-.18,6.93-1.66,0,.19a3.49,3.49,0,0,0,.07.37l0,.18Zm-190-1.36L3.2,79.75l.18-.68,6.9,1.71,0,.19a1,1,0,0,0-.07.33Zm189.22-1.73-.18-.68L206,77.19l0,.18c0,.11.07.26.12.36l0,.19ZM10.94,78.36h-.21L4.08,76.49l.07-.37s0-.11.08-.18l0-.18,6.83,1.94Zm187.54-1.68-.11-.3a.33.33,0,0,0-.07-.19l0-.18,6.8-2.09.06.29c0,.08.08.18.12.26l0,.19ZM11.83,75.35,5,73.22,5.11,73c0-.15.07-.26.1-.37l0-.18,6.8,2.17-.08.18c0,.07,0,.11,0,.18s0,.11-.08.15Zm185.69-1.69-.25-.69L204,70.68l0,.19a1.46,1.46,0,0,0,.07.19c0,.07,0,.1,0,.14l.07.18ZM12.81,72.34,6.13,70l0-.15a1.58,1.58,0,0,1,.16-.37l.06-.18,6.69,2.38-.07.18-.12.34Zm183.65-1.69-.22-.66.11-.07,6.57-2.46v.22L203,68l.07.2ZM13.85,69.3h-.08L7.31,66.76l.07-.18c0-.08.08-.19.12-.27l.07-.25,6.64,2.61-.14.37.51.26Zm181.44-1.59-.08-.18c0-.11-.08-.19-.11-.29l-.07-.19,6.53-2.72.08.15a1.06,1.06,0,0,1,.14.33l.08.19-.19.06ZM15.13,66.39,8.59,63.6l.07-.18a1.64,1.64,0,0,0,.12-.22l.11-.29,6.53,2.82-.07.18a.91.91,0,0,0-.14.34ZM194,64.81l-.08-.18a.92.92,0,0,0-.14-.3l-.08-.18,6.47-2.94.15.26a2.24,2.24,0,0,0,.1.26l.07.15ZM16.46,63.49l-6.47-3,.33-.7,6.39,3,0,.18a.2.2,0,0,0-.08.15.28.28,0,0,0-.08.15ZM192.68,62l-.08-.18a.23.23,0,0,0-.07-.15v-.09h-.7l6.94-3.33.08.11a1.34,1.34,0,0,1,.07.18l.15.34ZM17.81,60.62,11.5,57.4l.11-.27c0-.06.1-.14.14-.22l.08-.17L18.14,60l-.07.15c-.07.11-.11.22-.18.33Zm173.44-1.5-.08-.18a1.86,1.86,0,0,0-.11-.19l-.11-.26,6.25-3.37.14.29c0,.08.08.11.12.19l.1.18Zm-172-1.32-6.2-3.41.36-.67,6.21,3.45-.15.3a1.74,1.74,0,0,1-.11.18Zm170.46-1.47-.07-.14a1,1,0,0,0-.12-.16c0-.07,0-.11-.07-.14l-.11-.19,6.17-3.55.08.17a2.19,2.19,0,0,0,.11.2l.19.29ZM20.89,55l-6.13-3.63.12-.15s0-.11.06-.14l.12-.18.1-.16,6.11,3.64Zm167.24-1.43-.19-.29a.37.37,0,0,0-.11-.15l-.08-.18,6-3.75.11.15a1.61,1.61,0,0,0,.18.34l.11.14ZM22.55,52.32l-6-3.81.37-.62.18.1,5.8,3.75Zm163.89-1.38-.12-.16a1.7,1.7,0,0,1-.1-.14.32.32,0,0,1-.08-.15l-.14-.15,5.95-4,.11.22c.06.07.1.15.17.25l.11.16ZM24.28,49.68l-5.84-4,.11-.15.21-.32.11-.16,5.81,4.05-.08.14c-.07.11-.14.18-.22.29Zm160.36-1.36-.44-.59,5.8-4.14.11.15c.07.1.11.22.21.28l.11.2ZM26.15,47.08l-5.73-4.19.18-.26a.58.58,0,0,1,.15-.21l.11-.11,5.69,4.18-.11.15a1,1,0,0,1-.18.29Zm156.58-1.33-.41-.54,5.62-4.34.11.15c.08.07.15.18.25.29l.11.15ZM28.05,44.55l-5.57-4.38.1-.14a2.61,2.61,0,0,1,.23-.3l.1-.15L28.49,44l-.11.15a1.09,1.09,0,0,1-.22.25Zm152.73-1.3-.11-.14a2.68,2.68,0,0,0-.23-.26l-.09-.14L186,38.08v.33c.07.07.1.14.18.23l.14.14ZM30,42.08,24.6,37.53l.11-.15a.77.77,0,0,0,.19-.22l.18-.23,5.44,4.6-.14.19a2.57,2.57,0,0,1-.19.21Zm148.73-1.25-.49-.55,5.33-4.59h.77l-.48.22s.08.08.08.12l.14.14ZM32.14,39.7l-5.29-4.77.07-.09v-.32l.15.14h0l.21-.29,5.29,4.77-.18.22a.76.76,0,0,1-.18.18Zm144.49-1.22-.15-.15a.68.68,0,0,0-.15-.18l-.18-.22,5.18-4.85.15.16a1.25,1.25,0,0,0,.26.25l.1.14ZM34.38,37.27l-.23,0-5-4.81.11-.11c0-.08.1-.12.14-.19l.26-.26,5.1,4.95-.1.16c-.08.07-.18.14-.26.22Zm140.05-1.1-.11-.14c-.08,0-.11-.12-.19-.16l-.17-.21,5-5,.51.54ZM36.5,35.11l-5-5.11.15-.11A1.16,1.16,0,0,1,32,29.6l.11-.11L37,34.59Zm135.69-1.18-.15-.11-.11-.11a.34.34,0,0,1-.15-.14l-.11-.12,4.85-5.17.11.1a.66.66,0,0,0,.19.15l.25.26Zm-133.38-1L34,27.65l.07-.08v-.36l.19.18.28-.22,4.82,5.26-.22.18c-.08.07-.15.11-.22.18Zm131-1.11-.26-.21-.15-.15-.14-.11,4.81-5.25.08.07a.92.92,0,0,0,.25.22l.14.11Zm-128.64-1-4.66-5.36.14-.14A3.48,3.48,0,0,0,37,25l.15-.12,4.59,5.44-.11.11a3.3,3.3,0,0,1-.3.22Zm126.21-1-.26-.22a.56.56,0,0,0-.14-.16l-.11-.1,4.52-5.5.18.18c.07.07.15.1.21.18l.16.11ZM43.74,28.68l-.23-.07L39,23.06h.33a.7.7,0,0,1,.22-.18l.15-.11,4.44,5.54-.15.11a2.75,2.75,0,0,0-.26.22ZM165,27.73l-.21-.19a1,1,0,0,1-.19-.15l-.19-.11,4.38-5.65.14.14a.79.79,0,0,1,.19.15l.26.18ZM46.12,26.81l-4.29-5.7L42,21l.34-.22.14-.1,4.26,5.68-.15.11a.34.34,0,0,0-.14.12.36.36,0,0,0-.15.1Zm116.3-1-.25-.19a1,1,0,0,0-.19-.15l-.15-.1L166,19.61l.62.44ZM48.7,24.93l-4.11-5.84.29-.18a.73.73,0,0,1,.19-.11l.14-.15,4.07,5.88-.14.11a.75.75,0,0,0-.3.18Zm111.11-1-.14-.11a.47.47,0,0,1-.18-.14l-.27-.15,4-5.9.14.1a.43.43,0,0,1,.14.12.61.61,0,0,1,.18.1l.16.11ZM51.3,23.14l-3.89-6,.14-.1a1.68,1.68,0,0,0,.34-.19l.14-.1,3.86,5.94Zm105.87-.92-.19-.08-.14-.11-.29-.18,3.78-6,.62.39ZM54,21.45l-3.71-6.1L50.9,15,54.61,21Zm100.47-.88-.62-.38,3.56-6.13.19.08a.56.56,0,0,0,.17.11.24.24,0,0,0,.15.07l.15.11ZM56.7,19.83l-3.49-6.21.62-.33,3.49,6.18Zm95-.85-.18-.07s-.07,0-.14-.07-.07,0-.12-.08H151l.16-.25,3.26-6.09.19.07.33.18.14.07Zm-92.16-.62-.15-.22L56.18,12l.08,0v-.62l.26.48a.27.27,0,0,1,.18-.07l.15-.11L60.12,18l-.23.15-.22.11Zm89.34-.85-.62-.33,3.15-6.35.15.07a1.51,1.51,0,0,0,.22.11l.29.16Zm-86.55-.66L59.2,10.47l.25-.12a.67.67,0,0,0,.26-.14l.18-.09,3,6.44-.14.07-.27.12ZM146,16.12l-.17-.07a.3.3,0,0,0-.19-.08l-.34-.07,3-6.54.25.11a2.54,2.54,0,0,1,.26.11l.15.12Zm-80.82-.59L62.28,9,62.46,9a1.26,1.26,0,0,1,.34-.15L63,8.74l2.86,6.5-.17.07a1.2,1.2,0,0,0-.3.15Zm77.92-.69-.67-.3L145.16,8l.18.11a.19.19,0,0,1,.15.07.68.68,0,0,1,.23.07l.14.07Zm-75-.56L65.4,7.71l.33-.15c.08,0,.15,0,.22-.06l.15-.08L68.75,14l-.16.07c-.07,0-.1,0-.14,0s-.14,0-.18.08Zm72-.62-.16-.07a.85.85,0,0,0-.32-.15l-.18,0L142,6.72l.7.29Zm-69-.58L71,13l-2.4-6.52.26-.1a1.67,1.67,0,0,1,.3-.07l.15-.07,2.41,6.67-.17.09a.34.34,0,0,0-.19.07Zm66-.56-.7-.22,2.31-6.75.19.07.29.11.22.07ZM74,12.08l-2.2-6.76.15,0,.18-.07.18-.07.19,0,2.2,6.76-.19.08a1,1,0,0,0-.32.06Zm60.11-.55-.18,0a1,1,0,0,1-.18-.07s-.11,0-.15,0l-.17,0,2.22-6.78.55.18Zm-57.06-.4-2-6.83.19,0,.36-.11.18,0,2,6.83-.18,0c-.08,0-.11,0-.2,0s-.09,0-.18.08Zm54-.48-.69-.18,1.87-6.9.18.06s.07,0,.15,0,.15,0,.19.08l.18,0Zm-50.82-.4-.18-.16L78.33,3.34h.22a.94.94,0,0,1,.33-.08L79,3.2l.09.17,1.71,6.72ZM128,9.84l-.19,0a.33.33,0,0,0-.19,0l-.33-.06,1.62-6.94.73.18ZM83.36,9.47l-.18-.14L81.67,2.57l.14,0c.08,0,.16,0,.23,0l.37-.08,1.5,6.94-.19,0a1,1,0,0,1-.18,0Zm41.56-.33L124.2,9l1.43-7,.14,0a3,3,0,0,0,.41.08l.18,0ZM86.33,8.85,85,1.91l.19-.08c.11,0,.22,0,.33,0l.21-.07,1.33,7-.18,0a.54.54,0,0,0-.19,0h-.14Zm35.47-.3-.33-.07c-.06,0-.14,0-.22,0l-.18,0,1.17-7,.2,0c.14,0,.25,0,.36.08l.18,0ZM89.5,8.48l-.08-.33L88.36,1.29h.18a1.39,1.39,0,0,1,.36-.08l.19-.05,1.07,7-.19,0a.68.68,0,0,1-.3,0ZM118.65,8l-.33,0a1.49,1.49,0,0,1-.19,0V7.79H118l.92-6.88h.19c.14,0,.25,0,.39.07h.19ZM92.58,7.86,91.73.8l.73-.06.85,7.05Zm22.91-.19-.7-.11.88-7a.38.38,0,0,0,.19,0h.22l.18,0ZM95.77,7.53,95.11.44h.18a.68.68,0,0,1,.3,0l.26,0,.62,7.08-.18,0H96Zm16.57-.15-.19,0h-.33l-.18,0V7.12l.47-6.9.74.08ZM99.11,7.26l-.22-.18L98.48.19h.19a1.39,1.39,0,0,1,.4,0l.19.17.37,6.92h-.19a.34.34,0,0,0-.14,0Zm10.06-.07-.18,0h-.55l.44-7.08h.58Zm-6.91-.07-.17-.18L101.9,0h.19c.14,0,.25,0,.36,0l.19.19.18,6.89-.18,0Zm3.72,0-.71-.18L105.5,0h.55Z"/>
</svg>
