<svg xmlns="http://www.w3.org/2000/svg" viewBox="0 0 271.41 268.1">
  <defs>
    <style>
      .a {
        opacity: 0.72;
      }

      .b {
        fill: #fff;
      }

      .c {
        fill: #ebfbf7;
        opacity: 0.79;
      }

      .d {
        opacity: 0.89;
      }

      .e {
        opacity: 0.64;
      }

      .f {
        opacity: 0.5;
      }

      .g {
        fill: #8c0303;
      }

      .h {
        opacity: 0.52;
      }

      .i {
        opacity: 0.84;
      }

      .j {
        opacity: 0.67;
      }

      .k {
        opacity: 0.66;
      }
    </style>
  </defs>
  <g>
    <g class="a">
      <path class="b" d="M57.12,213.42l.33.35c.21.24.55.59,1,1,.21.22.44.49.71.77s.56.56.88.89.64.67,1,1,.76.75,1.18,1.16c1.68,1.59,3.75,3.51,6.25,5.57a104.27,104.27,0,0,0,8.72,6.47,107.87,107.87,0,0,0,11.07,6.48l1.54.77.39.18.4.19c.25.13.52.25.78.37,1.06.51,2.15,1,3.24,1.46,2.2.91,4.48,1.83,6.82,2.63l.88.31.89.28c.59.19,1.19.4,1.79.58,1.21.36,2.43.73,3.67,1.05s2.48.64,3.73.94l1.89.42,1,.2,1,.2,1,.18c.33.06.65.12,1,.16.64.12,1.3.23,2,.33s1.29.19,1.94.29l1,.13,1,.12c2.62.32,5.27.51,7.93.64l2,.07h2c.33,0,.66,0,1,0l1,0h2c2.65-.09,5.27-.27,7.87-.52s5.16-.62,7.69-1.07c.62-.1,1.25-.23,1.88-.35l.93-.17.93-.21c.61-.13,1.22-.26,1.84-.41s1.21-.28,1.81-.43l1.8-.46c.58-.18,1.18-.32,1.76-.5,1.18-.34,2.34-.68,3.47-1.06l.85-.27.42-.14.42-.15,1.67-.58.81-.3.81-.32c.54-.21,1.09-.39,1.61-.61A110.48,110.48,0,0,0,188,235.65c3.48-1.91,6.57-3.85,9.24-5.66l1-.69.94-.66c.6-.46,1.18-.89,1.75-1.3l1.61-1.22.37-.29c.12-.1.24-.2.37-.29s.47-.38.69-.56c.91-.71,1.7-1.4,2.38-2l.5-.43.45-.39.78-.69,1.06-1,.35-.33L221.35,233l-.41.39-1.23,1.1c-.27.24-.57.52-.9.8s-.34.31-.53.46-.37.33-.57.49c-.8.68-1.71,1.47-2.78,2.3-.25.21-.53.42-.8.65l-.42.34-.44.34c-.6.44-1.21.92-1.85,1.42s-1.34,1-2.06,1.49c-.35.26-.71.52-1.09.77s-.75.53-1.14.79A118.75,118.75,0,0,1,196.39,251a123.56,123.56,0,0,1-13.51,6.34c-.6.25-1.24.48-1.87.73l-.94.36c-.31.11-.63.22-.95.35l-1.93.68-.5.17-.48.15-1,.33c-1.32.44-2.67.83-4,1.24-.69.19-1.37.39-2.06.57s-1.38.37-2.1.54l-2.11.52-2.14.46-1.07.23-1.09.21c-.73.13-1.45.29-2.19.41-2.92.51-5.91.92-8.93,1.24s-6.07.51-9.14.6c-.76,0-1.53,0-2.3,0H136.9c-.38,0-.76,0-1.15,0l-2.31,0-2.31-.09c-3.07-.14-6.16-.36-9.2-.74l-1.14-.13-1.14-.15c-.76-.12-1.52-.21-2.28-.34l-2.25-.37-1.12-.2-1.12-.22c-.38-.06-.75-.14-1.12-.21s-.74-.16-1.1-.25l-2.22-.46c-1.46-.37-2.91-.7-4.35-1.11s-2.85-.81-4.25-1.23l-2.1-.66-1-.34-1-.36c-2.73-.93-5.37-2-7.93-3.06-1.27-.57-2.54-1.11-3.77-1.68l-.91-.45-.46-.21-.46-.22c-.59-.3-1.19-.61-1.79-.89a129.3,129.3,0,0,1-12.88-7.53,125.22,125.22,0,0,1-10.12-7.53c-2.9-2.39-5.32-4.62-7.26-6.48l-1.36-1.33c-.44-.42-.82-.82-1.19-1.21s-.7-.71-1-1-.58-.61-.83-.87l-1.12-1.21-.39-.42Z"/>
    </g>
    <path class="c" d="M153.25,250.23l.49,0,.58-.06.8-.12,2.25-.32c.88-.15,1.9-.3,3-.5,2.26-.42,5-1,8.1-1.77s6.57-1.84,10.27-3.17a109.31,109.31,0,0,0,11.72-5c.51-.24,1-.5,1.53-.76s1-.53,1.52-.79,1.05-.54,1.55-.82,1-.58,1.54-.86,1-.59,1.54-.9,1-.62,1.57-.92l1.54-1,.78-.48.77-.52a116.27,116.27,0,0,0,32.94-32.5c.71-1.08,1.42-2.14,2.09-3.24.17-.28.35-.55.51-.83l.26-.39.24-.41c.32-.55.64-1.1,1-1.65,1.26-2.2,2.47-4.39,3.55-6.61.56-1.09,1.07-2.21,1.57-3.29.27-.55.5-1.12.73-1.66s.5-1.09.72-1.65.44-1.08.67-1.63l.34-.81c.09-.27.19-.55.3-.81.2-.55.41-1.09.61-1.62s.39-1.07.57-1.62a110.62,110.62,0,0,0,3.54-12.21c.88-3.83,1.5-7.4,1.91-10.58.12-.78.2-1.55.28-2.3s.18-1.46.23-2.15.12-1.36.18-2,.07-1.25.12-1.82.09-1.11.09-1.63,0-1,.05-1.44,0-.86,0-1.24,0-.72,0-1c0-1.24,0-1.88,0-1.88h16s0,.74,0,2.13c0,.36,0,.75,0,1.17s0,.91,0,1.42-.06,1.05-.08,1.62-.06,1.22-.1,1.86-.09,1.34-.13,2.06-.13,1.48-.21,2.26-.15,1.61-.25,2.46-.19,1.72-.32,2.62c-.48,3.6-1.17,7.66-2.18,12a137.33,137.33,0,0,1-4,13.93c-.22.6-.43,1.21-.65,1.82s-.47,1.23-.7,1.85c-.13.31-.23.61-.35.94s-.25.6-.38.91c-.25.61-.5,1.24-.77,1.86s-.53,1.24-.8,1.87-.53,1.26-.84,1.88c-.58,1.25-1.16,2.51-1.79,3.76-1.23,2.53-2.61,5-4.05,7.54l-1.1,1.86-.27.48-.29.46c-.2.3-.38.61-.58.93-.77,1.24-1.58,2.46-2.38,3.69a133.74,133.74,0,0,1-10.94,14.1,132.06,132.06,0,0,1-26.54,22.87,130.12,130.12,0,0,1-27.4,13.64c-4.22,1.52-8.17,2.69-11.7,3.61s-6.65,1.54-9.22,2c-1.29.24-2.46.42-3.45.59s-1.88.26-2.58.36c-.34,0-.64.08-.9.13l-.67.07-.55.07Z"/>
    <g class="d">
      <path class="b" d="M141.86,243.54l.22,10.93h.31c.32,0,.64,0,1,0l.9,0c.77,0,1.73-.06,2.87-.15a118.77,118.77,0,0,0,13.35-1.58c3.09-.56,6-1.19,8.79-1.89,3.35-.87,6.58-1.85,9.6-2.91a117.89,117.89,0,0,0,19.82-9,121.23,121.23,0,0,0,17.84-12.49c2.57-2.18,5.05-4.46,7.39-6.8,2-2,4-4.17,6.11-6.6a119.47,119.47,0,0,0,8.18-10.67c.28-.41.54-.78.77-1.15s.29-.46.44-.66l.14-.21c.28-.44.53-.81.73-1.13L241,198l-9.27-5.76c-.07.09-.27.44-.63,1-.15.25-.33.53-.55.86l-.24.36c-.11.16-.2.32-.32.49-.23.35-.49.74-.79,1.16a108.39,108.39,0,0,1-7.42,9.7c-1.84,2.12-3.7,4.14-5.55,6C214,214,211.76,216.1,209.5,218a107.3,107.3,0,0,1-34.21,19.56c-2.8,1-5.73,1.87-8.7,2.64-2.46.62-5.07,1.18-8,1.73a115.13,115.13,0,0,1-12.14,1.43c-1,.07-1.85.1-2.54.13l-.88,0h-1.19Z"/>
    </g>
    <g class="e">
      <path class="b" d="M21.8,180l.48,1.28c.16.42.37.93.62,1.53.11.31.25.62.39,1,.07.18.15.35.22.53s.17.36.24.56a123.64,123.64,0,0,0,6.15,12.38c1.42,2.49,3,5.15,4.84,7.87s3.84,5.52,6.07,8.34a125.78,125.78,0,0,0,15.4,16.23,127.92,127.92,0,0,0,18,13.29c3.06,1.85,6.1,3.51,9,5,.73.36,1.45.75,2.17,1.08l2.14,1,2.08.91c.32.15.67.29,1,.45s.69.27,1,.41a124.08,124.08,0,0,0,13,4.55c.8.24,1.53.42,2.16.59l1.58.43,1.33.32-2.51,10.38-1.45-.35-1.73-.47c-.68-.19-1.46-.38-2.33-.64a133.61,133.61,0,0,1-14.17-4.94l-1.08-.45-1.11-.47c-.74-.33-1.49-.65-2.25-1l-2.32-1.08c-.78-.37-1.56-.77-2.36-1.16-3.18-1.59-6.47-3.4-9.79-5.4a139.39,139.39,0,0,1-19.53-14.42,136.28,136.28,0,0,1-16.7-17.6c-2.41-3.05-4.6-6.09-6.58-9.05s-3.71-5.83-5.26-8.54a138.68,138.68,0,0,1-6.66-13.42c-.08-.22-.18-.42-.26-.61s-.16-.39-.24-.57c-.15-.38-.3-.73-.43-1.05-.26-.66-.49-1.2-.67-1.67l-.52-1.38Z"/>
    </g>
    <g class="f">
      <path class="g" d="M61.32,39.18s-.54.42-1.52,1.26-2.42,2.06-4.19,3.7a124,124,0,0,0-21.2,25.57c-.31.5-.63,1-.94,1.52l-.92,1.55c-.15.26-.3.53-.46.79s-.3.53-.46.8c-.29.54-.59,1.07-.89,1.61s-.59,1.11-.88,1.66-.6,1.12-.87,1.69c-.56,1.13-1.15,2.27-1.68,3.45a122.93,122.93,0,0,0-9.74,30.75,125,125,0,0,0,.67,47,122.42,122.42,0,0,0,3.41,12.89c1.26,3.93,2.62,7.47,3.94,10.56s2.62,5.71,3.7,7.87c.56,1.07,1.05,2,1.5,2.84s.84,1.51,1.16,2.08.59,1,.75,1.26l.25.44-13.47,8-.3-.49c-.18-.33-.47-.8-.83-1.43L17,202.17c-.51-.92-1.06-2-1.7-3.2-1.22-2.42-2.68-5.38-4.16-8.87s-3-7.47-4.45-11.9a136.66,136.66,0,0,1-3.84-14.52A140.48,140.48,0,0,1,.13,129.19c0-.37,0-.75,0-1.14s.05-.75.07-1.15c0-.76.1-1.52.14-2.29s.14-1.53.2-2.3l.11-1.15c0-.39.09-.77.13-1.15.08-.77.17-1.55.26-2.31s.21-1.54.31-2.3c.21-1.54.49-3.07.73-4.59a139.29,139.29,0,0,1,11-34.68c.61-1.33,1.26-2.61,1.89-3.9.31-.64.66-1.27,1-1.88s.66-1.26,1-1.87.69-1.22,1-1.83c.17-.29.35-.6.51-.9s.35-.59.52-.88l1-1.75c.34-.58.71-1.15,1.06-1.72a142.81,142.81,0,0,1,8.62-12.3c2.87-3.65,5.69-6.86,8.28-9.61.64-.7,1.3-1.33,1.9-2l.92-.93c.29-.29.6-.6.89-.87.58-.57,1.13-1.12,1.69-1.64s1.06-1,1.56-1.46c2-1.84,3.6-3.23,4.72-4.16S51.42,27,51.42,27Z"/>
    </g>
    <g class="h">
      <path class="b" d="M86.46,37l-.2.11-.58.31-.93.53q-.56.3-1.26.72l-1.55.91c-.56.34-1.15.73-1.8,1.12s-1.31.84-2,1.3c-.35.25-.72.47-1.09.73s-.74.51-1.13.77a113.06,113.06,0,0,0-10,7.85l-1.31,1.16c-.44.41-.88.8-1.32,1.22l-.65.62c-.22.2-.44.42-.65.63l-1.31,1.28-1.29,1.31-.64.67-.64.67c-.42.45-.84.9-1.26,1.37l-1.24,1.39c-.41.45-.81.93-1.21,1.41s-.81.94-1.19,1.42c-.78,1-1.56,1.92-2.3,2.9s-1.45,1.94-2.16,2.91c-.35.49-.68,1-1,1.47s-.68,1-1,1.45a113.8,113.8,0,0,0-6.47,11c-1.71,3.31-3,6.15-3.79,8.15-.4,1-.75,1.79-.94,2.33l-.32.84-7.32-2.8s.11-.3.34-.88.58-1.43,1-2.51c.9-2.14,2.23-5.19,4.06-8.71a121.18,121.18,0,0,1,6.91-11.74c.34-.51.7-1,1.06-1.55s.72-1,1.1-1.56c.76-1,1.52-2.09,2.31-3.12s1.63-2.06,2.46-3.1c.4-.52.85-1,1.27-1.52s.86-1,1.31-1.52L51,55l1.36-1.46.67-.72c.23-.24.47-.47.68-.72.47-.46.93-.94,1.39-1.4l1.39-1.36.7-.68.71-.66c.47-.43.93-.87,1.4-1.29s.94-.85,1.41-1.25a117,117,0,0,1,10.71-8.4c.41-.28.81-.55,1.2-.83s.78-.52,1.17-.77c.75-.5,1.47-1,2.16-1.4s1.32-.84,1.93-1.2l1.66-1c.5-.3,1-.54,1.35-.76s.72-.42,1-.56.47-.27.61-.35l.22-.11Z"/>
    </g>
    <g class="i">
      <path class="b" d="M242.42,60s-.09-.14-.3-.42-.22-.31-.38-.52-.33-.44-.55-.7c-.4-.53-.9-1.19-1.49-1.95l-1-1.22c-.36-.43-.72-.9-1.13-1.37-.8-1-1.69-2-2.7-3.14-.49-.56-1-1.16-1.57-1.74s-1.13-1.23-1.74-1.85c-2.4-2.52-5.23-5.24-8.46-8.06a129.36,129.36,0,0,0-10.92-8.49l-1.54-1.05-1.57-1-.79-.52c-.27-.17-.54-.33-.8-.51-.55-.33-1.09-.67-1.64-1-2.2-1.32-4.49-2.65-6.86-3.88s-4.83-2.44-7.34-3.59c-1.27-.54-2.53-1.11-3.83-1.63-.65-.26-1.29-.54-1.94-.78l-2-.75c-2.66-1-5.34-1.89-8.08-2.68-1.35-.42-2.74-.77-4.11-1.16-.7-.18-1.38-.33-2.08-.5s-1.39-.35-2.09-.49l-2.1-.46c-.69-.15-1.39-.27-2.1-.41l-1.05-.2-1-.17-2.11-.36c-.71-.09-1.41-.19-2.11-.3L156,8.88l-1.05-.12-2.11-.25-2.11-.19A125.46,125.46,0,0,0,134.22,8c-.33,0-.67,0-1,0s-.66,0-1,.05l-2,.13c-.66,0-1.31.11-1.95.16s-1.3.11-1.94.18c-2.57.28-5.08.6-7.5,1a124.61,124.61,0,0,0-13.51,3c-4.14,1.15-7.86,2.41-11.12,3.66-.4.14-.8.31-1.19.45l-1.16.47c-.75.31-1.48.6-2.17.9-1.38.6-2.65,1.15-3.78,1.69l-1.61.75-1.4.7-1.21.6c-.36.19-.69.37-1,.51l-1.82,1-3.74-6.9,1.93-1,1.05-.55c.38-.19.82-.42,1.28-.64s1-.47,1.49-.73l1.7-.81c1.2-.57,2.55-1.15,4-1.79.73-.32,1.51-.62,2.31-.95l1.22-.5,1.28-.48c3.46-1.32,7.41-2.67,11.8-3.89a132.5,132.5,0,0,1,14.34-3.16c2.59-.44,5.24-.78,8-1.07.69-.07,1.37-.13,2.07-.18S129,.4,129.68.36l2.1-.13q.53,0,1.05-.06L133.9.12A137.24,137.24,0,0,1,151.39.5l2.24.22,2.23.24L157,1.1l1.13.16c.75.1,1.49.2,2.24.33s1.5.23,2.24.36c.38.05.75.12,1.11.19l1.12.21,2.23.43,2.23.48c.74.16,1.48.35,2.22.53s1.47.35,2.2.54c1.47.41,3,.78,4.38,1.22,2.91.85,5.76,1.83,8.57,2.85l2.09.8c.69.26,1.37.55,2.06.83,1.38.54,2.71,1.14,4.06,1.73,2.67,1.21,5.28,2.46,7.79,3.8s4.95,2.72,7.28,4.13c.59.37,1.17.72,1.74,1.09l.86.53.84.56L215,23c.56.36,1.08.75,1.63,1.11a137.18,137.18,0,0,1,11.59,9c3.44,3,6.45,5.89,9,8.56.63.66,1.23,1.32,1.83,2s1.14,1.25,1.67,1.86c1.07,1.18,2,2.31,2.87,3.32.43.51.81,1,1.19,1.46l1,1.29,1.6,2.07.57.75.4.55c.21.29.34.45.34.45Z"/>
    </g>
    <g class="j">
      <path class="b" d="M245.26,79.31l-.27-.52c-.18-.34-.46-.84-.81-1.48s-.8-1.45-1.37-2.37L242,73.45c-.32-.53-.68-1.08-1-1.66-1.47-2.35-3.33-5.14-5.63-8.21a121.33,121.33,0,0,0-8.32-9.9c-.8-.88-1.66-1.75-2.51-2.62-.43-.45-.89-.87-1.33-1.32s-.9-.89-1.37-1.31l-1.41-1.32c-.47-.45-1-.87-1.46-1.31-1-.89-2-1.74-3.06-2.62-.51-.43-1-.85-1.58-1.28l-.8-.65-.84-.64c-.55-.42-1.09-.86-1.66-1.28s-1.15-.82-1.73-1.25c-2.32-1.65-4.73-3.28-7.26-4.83s-5.16-3-7.86-4.4-5.51-2.7-8.38-3.9-5.8-2.28-8.79-3.27l-1.12-.37c-.38-.12-.76-.25-1.13-.35l-2.27-.67c-1.51-.41-3-.85-4.58-1.2a118.68,118.68,0,0,0-18.59-3c-3.11-.23-6.18-.37-9.23-.38-.77,0-1.52,0-2.28,0h-1.14l-1.13.05c-.75,0-1.5,0-2.24.09L131,16a119.56,119.56,0,0,0-31.58,6.63c-.27.11-.55.19-.83.3l-.82.31-1.6.6c-1.06.42-2.07.85-3.08,1.25L90.18,26.4c-.92.44-1.83.85-2.69,1.27s-1.71.84-2.5,1.25l-2.3,1.21L80.6,31.29l-.49.28-.47.29c-.33.18-.63.36-.93.54-1.19.69-2.23,1.36-3.14,1.92s-1.67,1.09-2.29,1.49-1.08.74-1.39,1l-.48.32-5.27-7.57.51-.35c.33-.23.83-.59,1.51-1s1.47-1,2.46-1.61,2.1-1.33,3.38-2.07l1-.58.51-.31.54-.3L78.28,22l2.49-1.31c.85-.44,1.75-.89,2.68-1.35s1.92-.89,2.9-1.36l3.11-1.37c1.09-.44,2.19-.9,3.32-1.34l1.73-.66.88-.33.9-.33a128.85,128.85,0,0,1,15.84-4.53c1.42-.31,2.9-.59,4.36-.87l2.24-.38L119.84,8,121,7.84l2.29-.32,2.33-.26c.77-.09,1.55-.16,2.34-.23l1.18-.1.59,0,.6,0c.8-.07,1.6-.12,2.4-.17l2.42-.1,1.22,0,1.21,0c.82,0,1.63,0,2.45,0,3.28,0,6.6.16,9.94.42a127.48,127.48,0,0,1,20,3.2c1.66.38,3.3.84,4.94,1.29.82.23,1.63.48,2.44.72l1.22.38,1.21.4c3.22,1.05,6.39,2.22,9.48,3.52s6.1,2.71,9,4.2,5.74,3.1,8.46,4.75,5.33,3.41,7.83,5.2l1.85,1.35c.61.45,1.2.91,1.8,1.37l.9.69.86.69c.58.47,1.15.92,1.71,1.39,1.12.94,2.23,1.87,3.28,2.82.53.48,1.06.93,1.58,1.41s1,1,1.52,1.42,1,1,1.46,1.41,1,.94,1.44,1.42c.92,1,1.85,1.88,2.71,2.82A134.5,134.5,0,0,1,242.66,58c2.49,3.32,4.49,6.32,6.07,8.85.4.62.77,1.22,1.12,1.79s.64,1.11.94,1.6c.59,1,1.07,1.86,1.46,2.55l.88,1.6.28.55Z"/>
    </g>
    <g class="k">
      <path class="g" d="M251.34,135.18s0-.36,0-1.06,0-1.71-.07-3c-.1-2.58-.31-6.28-.89-10.68a113.42,113.42,0,0,0-3-14.8,112.08,112.08,0,0,0-5.86-16.29c-1.22-2.68-2.55-5.32-3.94-7.87s-2.89-5-4.4-7.31c-.39-.57-.75-1.16-1.14-1.71l-1.15-1.66c-.38-.54-.78-1.08-1.16-1.6-.19-.26-.37-.53-.56-.78l-.59-.76c-1.52-2-3.07-3.87-4.52-5.56-2.9-3.34-5.52-6-7.38-7.74-.95-.88-1.68-1.58-2.2-2l-.79-.71,8.05-9.09.88.78c.59.52,1.4,1.28,2.45,2.25,2.06,2,5,4.88,8.18,8.58,1.59,1.88,3.32,3.91,5,6.16l.64.84.64.87c.42.58.86,1.17,1.29,1.78l1.27,1.83c.44.62.84,1.27,1.26,1.91,1.68,2.56,3.34,5.27,4.88,8.1s3,5.75,4.38,8.74a125.52,125.52,0,0,1,6.5,18.07,122.49,122.49,0,0,1,3.32,16.42,115.28,115.28,0,0,1,1,11.82c.07,1.43.07,2.57.08,3.33s0,1.17,0,1.17Z"/>
    </g>
  </g>
</svg>
