<svg xmlns="http://www.w3.org/2000/svg" viewBox="0 0 311 310.88">
  <defs>
    <style>
      .a {
        fill: #e6e6e6;
        opacity: 0.82;
      }
    </style>
  </defs>
  <path class="a" d="M143.62,310.88c-3.75-.28-7.5-.69-11.16-1.23l2.48-16.84c3.27.49,6.61.86,9.95,1.11Zm33.62-1.09-2.38-16.85c2-.27,4-.61,5.92-.95l3.1,16.7C181.69,309.11,179.46,309.47,177.24,309.79ZM117,306.57A154.9,154.9,0,0,1,71.8,287l9.14-14.34a137.87,137.87,0,0,0,40.26,17.39Zm77.84-.32-4.32-16.45a137.86,137.86,0,0,0,40.12-17.72l9.25,14.26A154.61,154.61,0,0,1,194.87,306.25ZM62.55,280.66c-1.78-1.34-3.58-2.72-5.32-4.14l10.71-13.21c1.56,1.26,3.14,2.5,4.75,3.69Zm190.11-3.51L242,263.87c2.58-2.07,5.13-4.28,7.57-6.53l11.57,12.46C258.43,272.34,255.57,274.81,252.66,277.15ZM33.55,252.6c-2.31-2.9-4.56-5.93-6.69-9l14-9.62c1.88,2.74,3.89,5.45,6,8Zm249.68-8.21-14-9.71c1.14-1.64,2.25-3.3,3.32-5L287,238.77C285.77,240.65,284.52,242.54,283.23,244.39ZM18.64,230.18A154.25,154.25,0,0,1,2.2,183.74l16.73-3.05A137.58,137.58,0,0,0,33.57,222Zm274-1.11-15-8a137.48,137.48,0,0,0,14.29-41.46l16.76,2.91A154.46,154.46,0,0,1,292.63,229.07ZM.58,172.62c-.23-2.21-.42-4.47-.58-6.71l17-1.11q.19,3,.51,6Zm310-5.74-17-1.22c.24-3.29.36-6.66.36-10h17C311,159.4,310.85,163.18,310.59,166.88Zm-16.67-15.54a137.66,137.66,0,0,0-8.25-43.06l16-5.83a155.51,155.51,0,0,1,9.25,48.38ZM18.23,134.83,1.41,132.3c.56-3.7,1.26-7.41,2.09-11.05L20.08,125C19.35,128.23,18.73,131.55,18.23,134.83Zm5.62-23.31L7.73,106.11A155.06,155.06,0,0,1,30.62,62.49L44.24,72.68A138,138,0,0,0,23.85,111.52ZM280.23,95.37c-1.45-3-3-6-4.68-8.85L290.28,78c1.87,3.25,3.64,6.58,5.26,9.93ZM50.52,64.88,37.67,53.73c1.46-1.68,3-3.35,4.52-5L54.56,60.42Q52.51,62.61,50.52,64.88Zm207.35-2.56q-2-2.22-4.13-4.35L265.8,46c1.59,1.59,3.15,3.24,4.65,4.88Zm-11.44-11.2a138.59,138.59,0,0,0-37.21-23.26l6.61-15.67A155.51,155.51,0,0,1,257.6,38.3ZM77.37,41l-9.57-14c3.09-2.11,6.29-4.12,9.51-6l8.53,14.7C83,37.31,80.13,39.1,77.37,41ZM98.3,29.24l-7-15.5A154.64,154.64,0,0,1,138.84.86l1.78,16.91A137.46,137.46,0,0,0,98.3,29.24Zm97.76-6.17c-3.17-1-6.42-1.84-9.67-2.57L190.2,3.92c3.64.83,7.28,1.81,10.84,2.9Zm-45.45-6L150,.09C151.8,0,153.62,0,155.34,0h1.43l-.15,17h-1.29C153.71,17,152.18,17,150.61,17.08Z"/>
</svg>
