<svg xmlns="http://www.w3.org/2000/svg" viewBox="0 0 122.89 115.33">
  <defs>
    <style>
      .a {
        fill: #fff;
      }
    </style>
  </defs>
  <path class="a" d="M77,97.89a124.18,124.18,0,0,1-12.51,11.94c1.28-.17,2.56-.38,3.81-.62a49.12,49.12,0,0,0,9.89-3.08c.82-.35,1.62-.72,2.41-1.1a11.49,11.49,0,0,0,2,2A10.4,10.4,0,0,0,85,108.46c-1.58.85-3.2,1.62-4.86,2.34a55.26,55.26,0,0,1-10.9,3.39,59.49,59.49,0,0,1-23.18,0,54,54,0,0,1-10.76-3.32.26.26,0,0,1-.14-.07,62.29,62.29,0,0,1-9.82-5.33,54.49,54.49,0,0,1-8.51-7,52.86,52.86,0,0,1-7-8.51A60,60,0,0,1,4.5,80.15a55.26,55.26,0,0,1-3.39-10.9A60.34,60.34,0,0,1,0,57.66,58.33,58.33,0,0,1,1.14,46.07,54,54,0,0,1,4.46,35.31a.26.26,0,0,1,.07-.14,61,61,0,0,1,5.33-9.82,54.49,54.49,0,0,1,7-8.51,52.86,52.86,0,0,1,8.51-7,59.59,59.59,0,0,1,9.82-5.33,55.26,55.26,0,0,1,10.9-3.39,59.69,59.69,0,0,1,23.17,0A54,54,0,0,1,80,4.46a.26.26,0,0,1,.14.07A62.29,62.29,0,0,1,90,9.86a54.49,54.49,0,0,1,8.51,7,52.86,52.86,0,0,1,7,8.51,60,60,0,0,1,5.33,9.82,55.26,55.26,0,0,1,3.39,10.9,57.43,57.43,0,0,1,.93,6.48l-5.23-1.39c-.16-1.38-.37-2.74-.64-4.09a49.12,49.12,0,0,0-3.08-9.89,52.23,52.23,0,0,0-2.91-5.85H86.38a60,60,0,0,1,6.47,15.32l-5.68-1.51a59.35,59.35,0,0,0-6.71-13.81H60.19v9.39a8.93,8.93,0,0,0-1.07.74h0a9,9,0,0,0-.8.71,8.25,8.25,0,0,0-.93,1.12,9.26,9.26,0,0,0-1.55,4.4,8.51,8.51,0,0,0,.07,1.95,8.76,8.76,0,0,0,.38,1.59l.05.14.12.32c.06.17.11.27.13.32h0l3.63,8.17h-.06V84H70.8L73,89H60.19v17.78a117.86,117.86,0,0,0,14.54-14L77,97.89Zm38.16.08a3.92,3.92,0,0,1-1.16.79,4.21,4.21,0,0,1-1.38.36,4,4,0,0,1-2.88-.91L98.63,88.8l-3.81,9.35a12.48,12.48,0,0,1-1.13,2.15A8.62,8.62,0,0,1,92.25,102a6.11,6.11,0,0,1-1.33.9,4.78,4.78,0,0,1-1.45.45,4.16,4.16,0,0,1-1.72-.12,4.67,4.67,0,0,1-1.56-.81,5.84,5.84,0,0,1-1.12-1.19,8.76,8.76,0,0,1-.88-1.56C77,83.38,68.36,65.87,61.92,49.49a3.14,3.14,0,0,1-.17-.67,3.19,3.19,0,0,1,0-.69,3.1,3.1,0,0,1,.17-.79,3.23,3.23,0,0,1,.36-.72,1.94,1.94,0,0,1,.26-.31,2,2,0,0,1,.27-.23,3.41,3.41,0,0,1,.57-.36l0,0a2.66,2.66,0,0,1,.58-.2l.09,0a3.33,3.33,0,0,1,.54-.07,3.08,3.08,0,0,1,.61,0l.21,0c17.64,4.38,35.38,9.38,53,14.05a9.37,9.37,0,0,1,1.68.62,6,6,0,0,1,1.35.91,4.52,4.52,0,0,1,1,1.41,4.1,4.1,0,0,1,.39,1.69h0a4.86,4.86,0,0,1-.21,1.5,5.78,5.78,0,0,1-.68,1.45,8.51,8.51,0,0,1-1.43,1.69,12.54,12.54,0,0,1-1.95,1.46c-2.89,1.7-5.77,3.5-8.64,5.24L121,85a3.88,3.88,0,0,1,.94,1.21l0,.08a4.08,4.08,0,0,1-.47,4.25A88.16,88.16,0,0,1,115.14,98Zm-2.9-3.63,5.35-6.28-13-11.14-.07-.07-.18-.19a1.61,1.61,0,0,1-.21-.3,2.29,2.29,0,0,1,.78-3.14c3.76-2.07,7.64-4.66,11.35-6.89a7.37,7.37,0,0,0,1.13-.84,4.39,4.39,0,0,0,.72-.83,1.34,1.34,0,0,0,.15-.29,1.6,1.6,0,0,0-.3-.17,4.71,4.71,0,0,0-.73-.25L67.51,50.77l20.88,47a4.72,4.72,0,0,0,.37.68l0,0a2.7,2.7,0,0,0,.18.22,1.3,1.3,0,0,0,.26-.2,4,4,0,0,0,.7-.84,6.85,6.85,0,0,0,.65-1.27l5-12.28,0-.1.12-.23,0,0a1.88,1.88,0,0,1,.18-.24,2.29,2.29,0,0,1,3.23-.26l13,11.06ZM50.89,109.83A107.15,107.15,0,0,1,31.35,89h-16a50.93,50.93,0,0,0,5.05,5.85,50.15,50.15,0,0,0,7.75,6.36,54.1,54.1,0,0,0,9,4.88s.07,0,.1.07a50.67,50.67,0,0,0,9.79,3c1.25.24,2.53.45,3.8.62ZM12.07,84H28.12A51.39,51.39,0,0,1,21,60.19H5.12a55.83,55.83,0,0,0,1,8.06,48.49,48.49,0,0,0,3.08,9.89A54,54,0,0,0,12.07,84ZM5.12,55.14h16Q22,43.31,29,31.34H12.07a54.94,54.94,0,0,0-2.91,5.85s0,.07-.07.1a50.67,50.67,0,0,0-3,9.79,51.91,51.91,0,0,0-1,8.06ZM15.36,26.29H32.21a119.31,119.31,0,0,1,19-20.86c-1.42.17-2.8.38-4.15.66A49.12,49.12,0,0,0,37.2,9.17a55.79,55.79,0,0,0-9,4.88,51.33,51.33,0,0,0-7.75,6.36,50.09,50.09,0,0,0-5.05,5.85v0ZM64.1,5.43a117,117,0,0,1,19,20.86H100a52.09,52.09,0,0,0-12.8-12.22,54.1,54.1,0,0,0-9-4.88s-.07,0-.1-.07a50.67,50.67,0,0,0-9.79-3c-1.38-.28-2.77-.48-4.15-.66v0ZM60.19,8.72V26.29H76.93A118.14,118.14,0,0,0,60.19,8.72Zm-5,98.1V89H37.53a107.3,107.3,0,0,0,17.61,17.78Zm0-22.83V60.19H26c.31,8,3,15.91,8,23.8Zm0-28.85V31.34H34.87q-7.78,12.09-8.75,23.8Zm0-28.85V8.72A118.63,118.63,0,0,0,38.4,26.29Z"/>
</svg>
